<?xml version="1.0" encoding="UTF-8" standalone="no"?>
<svg
   version="1.0"
   width="500.000000pt"
   height="500.000000pt"
   viewBox="0 0 500.000000 500.000000"
   preserveAspectRatio="xMidYMid meet"
   id="svg80"
   sodipodi:docname="logo.svg"
   inkscape:version="1.2.2 (b0a8486541, 2022-12-01)"
   xmlns:inkscape="http://www.inkscape.org/namespaces/inkscape"
   xmlns:sodipodi="http://sodipodi.sourceforge.net/DTD/sodipodi-0.dtd"
   xmlns="http://www.w3.org/2000/svg"
   xmlns:svg="http://www.w3.org/2000/svg">
  <defs
     id="defs84" />
  <sodipodi:namedview
     id="namedview82"
     pagecolor="#ffffff"
     bordercolor="#000000"
     borderopacity="0.25"
     inkscape:showpageshadow="2"
     inkscape:pageopacity="0.0"
     inkscape:pagecheckerboard="0"
     inkscape:deskcolor="#d1d1d1"
     inkscape:document-units="pt"
     showgrid="false"
     inkscape:zoom="0.70710678"
     inkscape:cx="595.38391"
     inkscape:cy="278.60007"
     inkscape:window-width="1920"
     inkscape:window-height="1012"
     inkscape:window-x="0"
     inkscape:window-y="0"
     inkscape:window-maximized="1"
     inkscape:current-layer="svg80" />
  <metadata
     id="metadata60">
Created by potrace 1.16, written by Peter Selinger 2001-2019
</metadata>
  <g
     id="g1150">
    <path
       d="m 190,121.3 v 63.2 L 220.5,215 251,245.5 279.2,217.2 307.5,189 H 277.2 247 V 123.5 58 H 218.5 190 Z"
       id="path62"
       style="fill:#ffffff;stroke:none;stroke-width:0.1" />
    <path
       d="M 255,119.5 V 181 H 282.5 310 V 119.5 58 H 282.5 255 Z"
       id="path64"
       style="fill:#ffffff;stroke:none;stroke-width:0.1" />
    <path
       d="M 58,217.5 V 245 H 119.5 181 V 217.5 190 H 119.5 58 Z"
       id="path66"
       style="fill:#ffffff;stroke:none;stroke-width:0.1" />
    <path
       d="m 287,220.5 -30.5,30.5 26.8,26.7 26.7,26.8 V 274.7 245 h 66 66 V 217.5 190 h -62.3 -62.2 z"
       id="path68"
       style="fill:#ffffff;stroke:none;stroke-width:0.1" />
    <path
       d="M 190,224.3 V 253 H 124 58 v 28.5 28.5 h 64.2 64.2 L 216,280.5 245.5,251 217.8,223.3 190,195.5 Z"
       id="path70"
       style="fill:#ffffff;stroke:none;stroke-width:0.1" />
    <path
       d="M 318,281.5 V 310 h 62 62 V 281.5 253 h -62 -62 z"
       id="path72"
       style="fill:#ffffff;stroke:none;stroke-width:0.1" />
    <path
       d="M 224,283.5 197.5,310 h 28.8 28.7 v 66 66 h 27.5 27.5 v -63.3 -63.2 l -29.3,-29.3 c -16,-16 -29.4,-29.2 -29.7,-29.2 -0.3,0 -12.4,11.9 -27,26.5 z"
       id="path74"
       style="fill:#ffffff;stroke:none;stroke-width:0.1" />
    <path
       d="m 190,380 v 62 H 218.5 247 V 380 318 H 218.5 190 Z"
       id="path76"
       style="fill:#ffffff;stroke:none;stroke-width:0.1" />
  </g>
</svg>
