<?xml version="1.0" encoding="UTF-8" standalone="no"?>
<svg
   version="1.0"
   width="500.000000pt"
   height="500.000000pt"
   viewBox="0 0 500.000000 500.000000"
   preserveAspectRatio="xMidYMid meet"
   id="svg80"
   sodipodi:docname="logo.svg"
   inkscape:version="1.2.2 (b0a8486541, 2022-12-01)"
   xmlns:inkscape="http://www.inkscape.org/namespaces/inkscape"
   xmlns:sodipodi="http://sodipodi.sourceforge.net/DTD/sodipodi-0.dtd"
   xmlns="http://www.w3.org/2000/svg"
   xmlns:svg="http://www.w3.org/2000/svg">
  <defs
     id="defs84" />
  <sodipodi:namedview
     id="namedview82"
     pagecolor="#ffffff"
     bordercolor="#000000"
     borderopacity="0.25"
     inkscape:showpageshadow="2"
     inkscape:pageopacity="0.0"
     inkscape:pagecheckerboard="0"
     inkscape:deskcolor="#d1d1d1"
     inkscape:document-units="pt"
     showgrid="false"
     inkscape:zoom="1.257"
     inkscape:cx="333.33333"
     inkscape:cy="333.33333"
     inkscape:window-width="1920"
     inkscape:window-height="1012"
     inkscape:window-x="0"
     inkscape:window-y="0"
     inkscape:window-maximized="1"
     inkscape:current-layer="svg80" />
  <metadata
     id="metadata60">
Created by potrace 1.16, written by Peter Selinger 2001-2019
</metadata>
  <g
     transform="translate(0.000000,500.000000) scale(0.100000,-0.100000)"
     fill="#000000"
     stroke="none"
     id="g78">
    <path
       d="M1900 3787 l0 -632 305 -305 305 -305 282 283 283 282 -303 0 -302 0 0 655 0 655 -285 0 -285 0 0 -633z"
       id="path62" />
    <path
       d="M2550 3805 l0 -615 275 0 275 0 0 615 0 615 -275 0 -275 0 0 -615z"
       id="path64" />
    <path
       d="M580 2825 l0 -275 615 0 615 0 0 275 0 275 -615 0 -615 0 0 -275z"
       id="path66" />
    <path
       d="M2870 2795 l-305 -305 268 -267 267 -268 0 298 0 297 660 0 660 0 0 275 0 275 -623 0 -622 0 -305 -305z"
       id="path68" />
    <path
       d="M1900 2757 l0 -287 -660 0 -660 0 0 -285 0 -285 642 0 642 0 296 295 295 295 -277 277 -278 278 0 -288z"
       id="path70" />
    <path
       d="M3180 2185 l0 -285 620 0 620 0 0 285 0 285 -620 0 -620 0 0 -285z"
       id="path72" />
    <path
       d="M2240 2165 l-265 -265 288 0 287 0 0 -660 0 -660 275 0 275 0 0 633 0 632 -293 293 c-160 160 -294 292 -297 292 -3 0 -124 -119 -270 -265z"
       id="path74" />
    <path
       d="M1900 1200 l0 -620 285 0 285 0 0 620 0 620 -285 0 -285 0 0 -620z"
       id="path76" />
  </g>
</svg>
