<?xml version="1.0" encoding="UTF-8"?>
<!-- Generator: visioncortex VTracer 0.6.3 -->
<svg version="1.1" xmlns="http://www.w3.org/2000/svg" width="641" height="244">
<path d="M0 0 C2.79 1.38 2.79 1.38 5.84 0.39 C6.81 -0.04 7.78 -0.47 8.79 -0.92 C10.02 -1.43 10.02 -1.43 11.28 -1.95 C12.46 -2.46 12.46 -2.46 13.66 -2.98 C22.62 -6.54 31.08 -6.76 40.13 -2.93 C41.45 -2.25 42.75 -1.56 44.04 -0.82 C46.03 0.21 47.55 0.83 49.79 1.08 C52.06 0.18 52.06 0.18 54.35 -1.23 C62.5 -5.51 70.12 -6.76 79.15 -4.75 C85.86 -2.64 91.15 0.78 95.79 6.08 C96.49 6.87 97.19 7.65 97.91 8.46 C103.58 16.39 103.94 24.5 103.92 33.86 C103.92 34.88 103.92 35.89 103.93 36.95 C103.93 40.45 103.92 43.95 103.91 47.46 C103.91 49.29 103.91 49.29 103.91 51.17 C103.87 99.47 103.26 147.78 102.79 196.08 C95.53 196.08 88.27 196.08 80.79 196.08 C80.77 192.89 80.77 192.89 80.76 189.62 C80.66 169.57 80.56 149.51 80.45 129.45 C80.39 119.14 80.34 108.83 80.29 98.52 C80.25 89.53 80.2 80.54 80.15 71.56 C80.13 66.8 80.1 62.04 80.08 57.28 C80.06 52.8 80.04 48.32 80.01 43.84 C80 42.2 79.99 40.55 79.99 38.91 C79.98 36.66 79.96 34.42 79.95 32.18 C79.94 30.92 79.93 29.66 79.93 28.37 C79.81 25.48 79.46 22.89 78.79 20.08 C73.73 17.88 69.09 17.58 63.79 19.08 C61.35 21.03 60.8 22.04 59.79 25.08 C59.68 27.36 59.64 29.65 59.63 31.93 C59.63 32.64 59.62 33.34 59.62 34.06 C59.6 36.41 59.59 38.77 59.58 41.12 C59.57 42.81 59.56 44.49 59.55 46.18 C59.53 50.76 59.51 55.34 59.49 59.92 C59.46 64.7 59.44 69.49 59.41 74.27 C59.36 83.33 59.31 92.4 59.27 101.46 C59.22 111.78 59.17 122.09 59.11 132.41 C59 153.63 58.89 174.86 58.79 196.08 C51.53 196.08 44.27 196.08 36.79 196.08 C36.78 193.98 36.78 191.88 36.77 189.71 C36.71 169.92 36.64 150.13 36.55 130.34 C36.51 120.16 36.47 109.99 36.44 99.81 C36.42 90.95 36.39 82.08 36.34 73.21 C36.32 68.51 36.3 63.82 36.29 59.12 C36.29 54.7 36.27 50.28 36.23 45.86 C36.23 44.23 36.22 42.61 36.22 40.99 C36.23 38.77 36.21 36.56 36.19 34.34 C36.18 32.48 36.18 32.48 36.17 30.58 C35.68 26.12 34.66 21.62 31.04 18.64 C27.06 17.65 23.36 17.53 19.48 18.89 C17.49 20.14 17.49 20.14 15.79 23.08 C15.58 25.9 15.49 28.62 15.49 31.44 C15.48 32.3 15.47 33.16 15.46 34.05 C15.43 36.93 15.42 39.81 15.41 42.68 C15.39 44.72 15.38 46.77 15.36 48.81 C15.32 53.17 15.29 57.53 15.27 61.89 C15.23 68.7 15.18 75.52 15.12 82.33 C15.1 84.62 15.08 86.9 15.06 89.19 C15.05 90.33 15.04 91.46 15.04 92.63 C15.01 96.09 14.98 99.54 14.96 103 C14.8 123.15 14.55 143.31 14.26 163.46 C14.22 166.61 14.17 169.76 14.13 172.92 C14.02 180.64 13.9 188.36 13.79 196.08 C6.86 196.08 -0.07 196.08 -7.21 196.08 C-7.22 192.89 -7.22 192.89 -7.22 189.63 C-7.26 169.59 -7.32 149.55 -7.39 129.51 C-7.43 119.2 -7.47 108.9 -7.48 98.59 C-7.49 89.61 -7.52 80.63 -7.57 71.65 C-7.59 66.9 -7.6 62.14 -7.6 57.38 C-7.6 52.91 -7.62 48.43 -7.65 43.96 C-7.66 42.31 -7.66 40.67 -7.66 39.03 C-7.65 36.78 -7.67 34.54 -7.69 32.3 C-7.7 31.04 -7.7 29.78 -7.7 28.49 C-8.31 24.44 -9.67 22.25 -12.21 19.08 C-15.28 17.55 -17.83 17.85 -21.21 18.08 C-24.94 19.83 -24.94 19.83 -27.21 23.08 C-27.32 24.97 -27.36 26.86 -27.38 28.75 C-27.39 29.96 -27.41 31.17 -27.42 32.41 C-27.43 33.76 -27.44 35.1 -27.44 36.45 C-27.46 37.86 -27.47 39.27 -27.48 40.68 C-27.51 43.72 -27.54 46.77 -27.56 49.81 C-27.6 54.63 -27.65 59.45 -27.71 64.27 C-27.72 65.93 -27.74 67.58 -27.76 69.23 C-27.77 70.06 -27.78 70.88 -27.79 71.74 C-27.91 82.96 -28.02 94.19 -28.11 105.41 C-28.17 112.98 -28.25 120.55 -28.34 128.12 C-28.38 132.12 -28.42 136.12 -28.45 140.13 C-28.47 143.9 -28.51 147.67 -28.56 151.45 C-28.59 153.48 -28.59 155.5 -28.6 157.53 C-28.78 168.38 -30.94 178.57 -38.7 186.63 C-45.97 193.38 -54.3 196.4 -64.21 196.08 C-74.05 194.77 -82.16 191.14 -88.52 183.39 C-96.4 171.32 -95.74 159.27 -95.6 145.35 C-95.59 143.15 -95.59 140.94 -95.58 138.74 C-95.57 132.97 -95.53 127.2 -95.49 121.43 C-95.44 115.53 -95.43 109.64 -95.41 103.74 C-95.36 92.18 -95.29 80.63 -95.21 69.08 C-87.95 69.08 -80.69 69.08 -73.21 69.08 C-73.2 71.93 -73.18 74.77 -73.17 77.71 C-73.12 87.12 -73.05 96.52 -72.98 105.93 C-72.93 111.63 -72.89 117.34 -72.86 123.04 C-72.84 128.55 -72.8 134.05 -72.75 139.56 C-72.73 141.65 -72.72 143.75 -72.71 145.85 C-72.7 148.8 -72.68 151.74 -72.64 154.68 C-72.65 155.98 -72.65 155.98 -72.65 157.31 C-72.57 162.28 -72.02 165.79 -69.21 170.08 C-65.52 172.54 -62.49 172.78 -58.21 172.08 C-54.77 169.96 -53.49 168.93 -52.21 165.08 C-52.11 163.23 -52.07 161.37 -52.07 159.52 C-52.06 157.78 -52.06 157.78 -52.05 156.01 C-52.04 154.74 -52.04 153.47 -52.04 152.16 C-52.03 150.8 -52.02 149.45 -52.02 148.1 C-52 145.19 -51.99 142.27 -51.98 139.36 C-51.97 134.74 -51.94 130.13 -51.92 125.51 C-51.85 112.39 -51.79 99.26 -51.73 86.13 C-51.71 78.89 -51.67 71.64 -51.63 64.39 C-51.6 59.81 -51.58 55.23 -51.57 50.65 C-51.56 47.79 -51.54 44.93 -51.53 42.06 C-51.51 40.12 -51.51 38.18 -51.51 36.24 C-51.41 23.66 -50.28 14.16 -41.96 4.46 C-28.83 -6.88 -15.31 -9.34 0 0 Z " fill="#000000" transform="translate(511.2109375,26.91796875)"/>
<path d="M0 0 C7.4 5.09 14.29 11.54 16.46 20.62 C16.93 23.4 17.12 26.08 17.23 28.89 C17.27 29.97 17.31 31.04 17.36 32.14 C17.42 33.84 17.42 33.84 17.48 35.57 C17.52 36.73 17.56 37.89 17.6 39.09 C18.89 77.52 18.89 77.52 6.73 92.63 C-2.77 102.7 -13.63 105.97 -27.09 107.32 C-27.09 138.01 -27.09 168.7 -27.09 200.32 C-34.02 200.32 -40.95 200.32 -48.09 200.32 C-49.19 99.56 -49.19 99.56 -49.26 62.83 C-49.27 60.09 -49.28 57.36 -49.29 54.63 C-49.31 50.89 -49.32 47.14 -49.32 43.4 C-49.32 42.35 -49.33 41.3 -49.34 40.22 C-49.3 27.06 -47.97 15.63 -38.96 5.57 C-28.98 -3.59 -12.27 -6.8 0 0 Z M-26.09 24.32 C-27.23 27.53 -27.21 30.61 -27.2 34 C-27.2 35.14 -27.2 36.28 -27.2 37.46 C-27.19 38.69 -27.19 39.91 -27.18 41.18 C-27.18 42.44 -27.18 43.69 -27.18 44.99 C-27.17 48.33 -27.17 51.67 -27.15 55.01 C-27.14 58.43 -27.14 61.84 -27.13 65.25 C-27.12 71.94 -27.11 78.63 -27.09 85.32 C-25.65 85.19 -24.22 85.06 -22.79 84.92 C-21.99 84.85 -21.19 84.78 -20.37 84.7 C-14.25 83.67 -10.6 79.01 -7.09 74.32 C-3.75 68.98 -3.92 62.69 -3.88 56.57 C-3.87 55.48 -3.87 55.48 -3.87 54.37 C-3.86 52.84 -3.85 51.31 -3.85 49.78 C-3.84 47.46 -3.8 45.13 -3.77 42.81 C-3.77 41.32 -3.76 39.82 -3.76 38.32 C-3.75 37.64 -3.73 36.96 -3.72 36.25 C-3.75 30.44 -4.98 24.91 -8.71 20.32 C-15.72 17.36 -21.11 18.84 -26.09 24.32 Z " fill="#000000" transform="translate(70.0859375,24.68359375)"/>
<path d="M0 0 C6.93 0 13.86 0 21 0 C21 66.99 21 133.98 21 203 C14.07 203 7.14 203 0 203 C-0.5 155.48 -0.5 155.48 -1 107 C-11.37 109.61 -11.37 109.61 -18.1 116.84 C-21.95 125.27 -21.7 133.96 -21.83 143.04 C-21.87 144.77 -21.9 146.51 -21.95 148.24 C-22.05 152.78 -22.13 157.31 -22.2 161.84 C-22.28 166.48 -22.38 171.12 -22.48 175.76 C-22.68 184.84 -22.84 193.92 -23 203 C-30.26 203 -37.52 203 -45 203 C-45.05 193.43 -45.08 183.86 -45.1 174.29 C-45.11 169.84 -45.13 165.39 -45.15 160.95 C-45.17 156.65 -45.18 152.35 -45.19 148.05 C-45.19 146.42 -45.2 144.79 -45.21 143.16 C-45.33 124.92 -43.6 109.93 -30.41 96.19 C-21.55 88.15 -11.84 85 0 85 C0 56.95 0 28.9 0 0 Z " fill="#000000" transform="translate(110,22)"/>
<path d="M0 0 C1.4 0.02 2.79 0.04 4.19 0.05 C7.56 0.1 10.94 0.17 14.31 0.25 C14.44 13.71 14.58 27.17 14.7 40.63 C14.76 46.88 14.82 53.14 14.89 59.39 C15.36 107.54 15.36 107.54 15.36 129.11 C15.36 129.83 15.36 130.56 15.36 131.3 C15.36 168.74 15.36 168.74 5.31 184.25 C4.76 185.12 4.2 185.98 3.62 186.88 C-6.4 197.18 -19.22 200.9 -33.29 201.33 C-35.95 201.35 -38.6 201.34 -41.25 201.31 C-42.16 201.31 -43.08 201.3 -44.02 201.3 C-46.24 201.29 -48.46 201.27 -50.69 201.25 C-50.76 192.63 -50.81 184 -50.84 175.38 C-50.86 171.37 -50.88 167.36 -50.91 163.36 C-50.95 159.48 -50.96 155.6 -50.97 151.73 C-50.98 150.26 -50.99 148.79 -51 147.32 C-51.18 131.27 -49.32 116.1 -37.94 103.94 C-30.45 96.95 -22.21 92.59 -12 91.71 C-10.51 91.58 -10.51 91.58 -8.99 91.44 C-8.23 91.38 -7.47 91.32 -6.69 91.25 C-6.72 90.23 -6.75 89.2 -6.78 88.15 C-7.42 66.17 -7.85 44.23 -7.69 22.25 C-14.95 23.49 -14.95 23.49 -21.06 27.38 C-21.69 27.91 -22.32 28.45 -22.96 29.01 C-28.13 35.72 -28.21 43.28 -28.42 51.41 C-28.46 52.55 -28.5 53.69 -28.54 54.87 C-28.66 58.5 -28.77 62.12 -28.88 65.75 C-28.96 68.22 -29.04 70.69 -29.12 73.16 C-29.33 79.19 -29.51 85.22 -29.69 91.25 C-36.62 91.25 -43.55 91.25 -50.69 91.25 C-50.76 84.37 -50.82 77.48 -50.85 70.6 C-50.87 68.27 -50.89 65.93 -50.91 63.59 C-51.12 44.62 -50.55 30.06 -39.44 14 C-27.89 2.45 -15.98 -0.41 0 0 Z M-22.68 118.2 C-29.56 126.38 -29.99 134.81 -29.88 145.19 C-29.88 146.2 -29.88 147.21 -29.87 148.25 C-29.86 151.44 -29.84 154.62 -29.81 157.81 C-29.8 159.99 -29.79 162.16 -29.79 164.34 C-29.76 169.64 -29.73 174.95 -29.69 180.25 C-28.26 180.12 -26.84 179.98 -25.42 179.84 C-24.63 179.76 -23.83 179.69 -23.02 179.61 C-17.95 178.83 -14.92 176.93 -11.96 172.9 C-8.46 167.26 -6.56 162.97 -6.57 156.3 C-6.57 155.32 -6.57 154.34 -6.57 153.33 C-6.58 152.27 -6.58 151.22 -6.59 150.14 C-6.59 149.06 -6.59 147.98 -6.59 146.86 C-6.6 143.41 -6.61 139.95 -6.62 136.5 C-6.63 134.16 -6.63 131.82 -6.64 129.47 C-6.65 123.73 -6.67 117.99 -6.69 112.25 C-13.49 112.17 -17.73 113.36 -22.68 118.2 Z " fill="#000000" transform="translate(204.6875,21.75)"/>
<path d="M0 0 C7.26 0 14.52 0 22 0 C22 24.42 22 48.84 22 74 C36.19 74 50.38 74 65 74 C65 80.93 65 87.86 65 95 C50.81 95 36.62 95 22 95 C22.09 108.54 22.09 108.54 22.21 122.08 C22.26 127.6 22.31 133.13 22.35 138.65 C22.37 143.1 22.41 147.56 22.46 152.01 C22.48 153.71 22.49 155.41 22.5 157.11 C22.51 159.49 22.54 161.87 22.57 164.25 C22.57 165.3 22.57 165.3 22.56 166.37 C22.65 170.94 23.52 174.15 26 178 C29.64 179.21 33.25 179.92 37 179 C40.19 176.78 41.72 175.44 42.47 171.57 C42.66 168.48 42.69 165.41 42.67 162.31 C42.69 160.61 42.69 160.61 42.71 158.87 C42.75 155.25 42.75 151.62 42.75 148 C42.77 144.38 42.8 140.75 42.83 137.13 C42.85 134.87 42.86 132.62 42.86 130.37 C42.87 129.34 42.87 128.32 42.87 127.26 C42.87 126.36 42.87 125.47 42.88 124.54 C43 122 43 122 44 117 C50.93 117 57.86 117 65 117 C65.09 124.8 65.16 132.6 65.21 140.39 C65.23 144.02 65.26 147.64 65.3 151.26 C65.35 154.76 65.37 158.26 65.38 161.76 C65.39 163.74 65.42 165.71 65.45 167.68 C65.46 175.05 64.76 180.61 61 187 C60.62 187.65 60.24 188.31 59.85 188.98 C56.19 194.99 50.37 198.49 44.06 201.31 C33.12 203.77 24.41 202.88 14.43 197.61 C7.2 192.81 2.52 186.11 0.44 177.75 C-0.1 174.38 -0.12 171.17 -0.12 167.76 C-0.12 167.04 -0.12 166.32 -0.12 165.58 C-0.12 163.17 -0.12 160.77 -0.11 158.37 C-0.11 156.64 -0.11 154.92 -0.11 153.19 C-0.11 148.51 -0.11 143.83 -0.1 139.16 C-0.1 134.26 -0.09 129.37 -0.09 124.48 C-0.09 115.22 -0.08 105.96 -0.07 96.7 C-0.06 86.15 -0.06 75.61 -0.05 65.07 C-0.04 43.38 -0.02 21.69 0 0 Z " fill="#000000" transform="translate(242,22)"/>
<path d="M0 0 C9.16 10.15 9.77 21.16 9.65 34.24 C9.63 36.33 9.63 38.43 9.63 40.52 C9.6 48.96 9.1 57.15 8.45 65.6 C22.97 65.6 37.49 65.6 52.45 65.6 C52.45 72.53 52.45 79.46 52.45 86.6 C47.93 86.85 47.93 86.85 43.32 87.1 C42.42 87.15 41.53 87.21 40.6 87.26 C30.23 87.79 19.83 87.65 9.45 87.6 C9.53 97.41 9.62 107.21 9.73 117.02 C9.78 121.57 9.83 126.12 9.87 130.68 C9.9 135.07 9.95 139.47 10 143.87 C10.02 145.54 10.04 147.22 10.05 148.89 C10.07 151.24 10.09 153.59 10.13 155.94 C10.13 156.63 10.13 157.32 10.13 158.03 C10.21 162.23 10.81 165.72 12.45 169.6 C14.16 170.64 14.16 170.64 16.45 170.6 C17.58 170.68 18.71 170.77 19.88 170.85 C23.69 170.58 25.45 169.89 28.45 167.6 C29.97 164.56 29.67 161.36 29.73 158.02 C29.74 157.25 29.76 156.48 29.78 155.7 C29.82 154.06 29.86 152.42 29.89 150.77 C29.98 146.55 30.09 142.32 30.19 138.1 C30.21 137.27 30.23 136.44 30.25 135.59 C30.48 126.58 30.93 117.6 31.45 108.6 C38.38 108.6 45.31 108.6 52.45 108.6 C53.18 112.28 53.57 115.05 53.59 118.71 C53.6 119.7 53.6 120.69 53.61 121.71 C53.61 122.77 53.61 123.84 53.61 124.93 C53.62 126.59 53.62 126.59 53.62 128.27 C53.63 130.61 53.63 132.94 53.63 135.27 C53.63 138.82 53.65 142.38 53.67 145.93 C53.67 148.2 53.67 150.47 53.68 152.74 C53.68 153.8 53.69 154.85 53.7 155.93 C53.67 166.53 52.06 175.07 45.45 183.6 C38.5 190.44 30.84 193.96 21.15 194.66 C11.18 194.44 2.82 190.73 -4.34 183.9 C-15.34 171.9 -13.7 154.31 -13.71 139.07 C-13.72 137.11 -13.73 135.16 -13.74 133.21 C-13.74 131.14 -13.75 129.08 -13.75 127.01 C-13.76 122.69 -13.78 118.36 -13.81 114.04 C-13.87 101.75 -13.92 89.47 -13.96 77.18 C-13.97 70.37 -14 63.56 -14.04 56.75 C-14.07 53.15 -14.08 49.56 -14.08 45.96 C-14.09 41.97 -14.11 37.97 -14.14 33.97 C-14.14 32.79 -14.13 31.6 -14.13 30.38 C-14.14 29.29 -14.15 28.2 -14.16 27.08 C-14.17 26.14 -14.17 25.2 -14.17 24.22 C-14.64 21.02 -15.58 19.15 -17.55 16.6 C-21.63 15.62 -24.29 15.35 -28.37 16.16 C-31.5 18.22 -32.17 20.1 -33.55 23.6 C-34.04 27.06 -34.15 30.49 -34.24 33.98 C-34.35 37.15 -34.45 40.33 -34.55 43.6 C-41.48 43.6 -48.41 43.6 -55.55 43.6 C-58.12 14.59 -58.12 14.59 -49.55 2.6 C-43.71 -4.14 -36.66 -7.08 -28.18 -9.27 C-17.77 -9.63 -7.88 -7.02 0 0 Z " fill="#000000" transform="translate(341.5546875,30.3984375)"/>
<path d="M0 0 C7.34 5.09 12.78 11.95 14.88 20.75 C15.23 25.09 15.17 29.39 15.07 33.75 C15.05 35.48 15.05 35.48 15.03 37.25 C14.99 40.08 14.94 42.91 14.88 45.75 C7.62 45.75 0.36 45.75 -7.12 45.75 C-7.17 43.34 -7.17 43.34 -7.23 40.89 C-7.3 38.78 -7.36 36.67 -7.43 34.56 C-7.46 32.98 -7.46 32.98 -7.5 31.36 C-7.53 30.34 -7.57 29.32 -7.61 28.27 C-7.63 27.33 -7.66 26.39 -7.68 25.43 C-8.19 22.27 -9.26 20.33 -11.12 17.75 C-14.57 16.02 -18.34 16.25 -22.12 16.75 C-25.15 18.94 -25.93 20.2 -27.12 23.75 C-27.26 25.44 -27.36 27.15 -27.43 28.85 C-27.47 29.74 -27.51 30.62 -27.55 31.54 C-27.59 32.66 -27.64 33.78 -27.68 34.93 C-27.82 38.5 -27.97 42.07 -28.12 45.75 C-35.38 45.75 -42.64 45.75 -50.12 45.75 C-50.21 40.36 -50.21 40.36 -50.3 34.87 C-50.33 33.76 -50.36 32.65 -50.39 31.51 C-50.47 20.92 -48.32 12.65 -41.12 4.75 C-30.08 -5.71 -13.14 -7.78 0 0 Z " fill="#000000" transform="translate(423.1171875,28.25390625)"/>
</svg>
