<?xml version="1.0" encoding="UTF-8"?>
<!-- Generator: visioncortex VTracer 0.6.3 -->
<svg version="1.1" xmlns="http://www.w3.org/2000/svg" width="500" height="500">
<path d="M0,0 L500,0 L500,500 L0,500 Z " fill="#FFFFFF" transform="translate(0,0)"/>
<path d="M0,0 L120,0 L120,140 L260,140 L260,260 L120,260 L120,400 L0,400 L0,260 L-140,260 L-140,140 L0,140 Z " fill="#000000" transform="translate(190,50)"/>
<path d="M0,0 L52,0 L52,139 L103,139 L103,140 L102,140 L102,141 L101,141 L101,142 L100,142 L100,143 L99,143 L99,144 L98,144 L98,145 L97,145 L97,146 L96,146 L96,147 L95,147 L95,148 L94,148 L94,149 L93,149 L93,150 L92,150 L92,151 L91,151 L91,152 L90,152 L90,153 L89,153 L89,154 L88,154 L88,155 L87,155 L87,156 L86,156 L86,157 L85,157 L85,158 L84,158 L84,159 L83,159 L83,160 L82,160 L82,161 L81,161 L81,162 L80,162 L80,163 L79,163 L79,164 L78,164 L78,165 L77,165 L77,166 L76,166 L76,167 L75,167 L75,168 L74,168 L74,169 L73,169 L73,170 L72,170 L72,171 L71,171 L71,172 L70,172 L70,173 L69,173 L69,174 L68,174 L68,175 L67,175 L67,176 L66,176 L66,177 L65,177 L65,178 L64,178 L64,179 L63,179 L63,180 L62,180 L62,181 L61,181 L61,182 L60,182 L60,183 L59,183 L59,184 L58,184 L58,185 L57,185 L57,186 L56,186 L56,187 L55,187 L55,188 L54,188 L54,189 L53,189 L53,192 L54,192 L54,193 L55,193 L55,194 L56,194 L56,195 L57,195 L57,196 L58,196 L58,197 L59,197 L59,198 L60,198 L60,199 L61,199 L61,200 L62,200 L62,201 L63,201 L63,202 L64,202 L64,203 L65,203 L65,204 L66,204 L66,205 L67,205 L67,206 L68,206 L68,207 L69,207 L69,208 L70,208 L70,209 L71,209 L71,210 L72,210 L72,211 L73,211 L73,212 L74,212 L74,213 L75,213 L75,214 L76,214 L76,215 L77,215 L77,216 L78,216 L78,217 L79,217 L79,218 L80,218 L80,219 L81,219 L81,220 L82,220 L82,221 L83,221 L83,222 L84,222 L84,223 L85,223 L85,224 L86,224 L86,225 L87,225 L87,226 L88,226 L88,227 L89,227 L89,228 L90,228 L90,229 L91,229 L91,230 L92,230 L92,231 L93,231 L93,232 L94,232 L94,233 L95,233 L95,234 L96,234 L96,235 L97,235 L97,236 L98,236 L98,237 L99,237 L99,238 L100,238 L100,239 L101,239 L101,240 L102,240 L102,241 L103,241 L103,242 L104,242 L104,191 L244,191 L244,243 L104,243 L104,383 L52,383 L52,244 L0,244 L0,242 L1,242 L1,241 L2,241 L2,240 L3,240 L3,239 L4,239 L4,238 L5,238 L5,237 L6,237 L6,236 L7,236 L7,235 L8,235 L8,234 L9,234 L9,233 L10,233 L10,232 L11,232 L11,231 L12,231 L12,230 L13,230 L13,229 L14,229 L14,228 L15,228 L15,227 L16,227 L16,226 L17,226 L17,225 L18,225 L18,224 L19,224 L19,223 L20,223 L20,222 L21,222 L21,221 L22,221 L22,220 L23,220 L23,219 L24,219 L24,218 L25,218 L25,217 L26,217 L26,216 L28,216 L28,215 L29,215 L29,214 L30,214 L30,213 L31,213 L31,212 L32,212 L32,211 L33,211 L33,210 L34,210 L34,209 L35,209 L35,208 L36,208 L36,207 L37,207 L37,206 L38,206 L38,205 L39,205 L39,204 L40,204 L40,203 L41,203 L41,202 L42,202 L42,201 L43,201 L43,200 L44,200 L44,199 L45,199 L45,198 L46,198 L46,197 L47,197 L47,196 L48,196 L48,195 L49,195 L49,194 L50,194 L50,193 L51,193 L51,192 L52,192 L52,190 L51,190 L51,189 L50,189 L50,188 L49,188 L49,187 L48,187 L48,186 L47,186 L47,185 L46,185 L46,184 L45,184 L45,183 L44,183 L44,182 L43,182 L43,181 L42,181 L42,180 L41,180 L41,179 L40,179 L40,178 L39,178 L39,177 L38,177 L38,176 L37,176 L37,175 L36,175 L36,174 L35,174 L35,173 L34,173 L34,172 L33,172 L33,171 L32,171 L32,170 L31,170 L31,169 L30,169 L30,168 L29,168 L29,167 L28,167 L28,166 L27,166 L27,165 L26,165 L26,164 L25,164 L25,163 L24,163 L24,162 L23,162 L23,161 L22,161 L22,160 L21,160 L21,159 L20,159 L20,158 L19,158 L19,157 L18,157 L18,156 L17,156 L17,155 L16,155 L16,154 L15,154 L15,153 L14,153 L14,152 L13,152 L13,151 L12,151 L12,150 L11,150 L11,149 L10,149 L10,148 L9,148 L9,147 L8,147 L8,146 L7,146 L7,145 L6,145 L6,144 L5,144 L5,143 L4,143 L4,142 L3,142 L3,141 L2,141 L2,140 L1,140 L1,139 L0,139 Z " fill="#FEFEFE" transform="translate(198,59)"/>
<path d="M0,0 L139,0 L139,52 L0,52 Z " fill="#FEFEFE" transform="translate(59,198)"/>
</svg>
